<svg width="13" height="11" viewBox="0 0 13 11" fill="none" xmlns="http://www.w3.org/2000/svg">
<path d="M12.7204 3.02318C12.3198 3.2798 7.39974 6.43865 7.15448 6.5956C6.90907 6.75291 6.73718 6.7733 6.5 6.7733C6.26268 6.7733 6.09093 6.75291 5.84538 6.5956C5.60011 6.43865 0.680335 3.2798 0.279501 3.02318C-0.00245407 2.84264 7.19044e-07 3.05439 7.19044e-07 3.2179V9.72272C7.19044e-07 10.0944 0.403289 10.5731 0.7163 10.5731H12.2837C12.5967 10.5731 13 10.0944 13 9.72272V3.2179C13 3.05439 13.0026 2.84264 12.7204 3.02318ZM0.428856 1.24973C0.781445 1.48241 5.66367 4.70228 5.84538 4.82216C6.02723 4.94205 6.26268 4.99986 6.5 4.99986C6.73718 4.99986 6.97262 4.94205 7.15448 4.82216C7.33619 4.70228 12.2183 1.48241 12.571 1.24973C12.9237 1.01724 13.2577 0.287109 12.6094 0.287109H0.39029C-0.257399 0.287109 0.0761232 1.01724 0.428856 1.24973Z" fill="#F0D8D9"/>
</svg>
